<svg id="isologo" width="32" height="32" viewBox="0 0 26 26" fill="none" xmlns="http://www.w3.org/2000/svg">
  <path fill-rule="evenodd" clip-rule="evenodd" d="M13 0L0 13L13 26L26 13L13 0ZM2.36363 13L13 2.36363L14.1818 3.54545L4.72727 13L5.90908 14.1818L4.72726 15.3636L2.36363 13ZM4.72726 15.3636L15.3636 4.72726L16.5454 5.90908L5.90909 16.5454L4.72726 15.3636ZM16.5454 5.90908L15.3636 7.09091L16.5454 8.27272L7.0909 17.7273L8.27272 18.9091L18.9091 8.27271L16.5454 5.90908ZM9.45454 17.7273L8.27272 18.9091L10.6363 21.2727L21.2727 10.6364L20.0909 9.45453L10.6363 18.9091L9.45454 17.7273ZM10.6363 21.2727L11.8182 22.4545L13 21.2727L11.8182 20.0909L10.6363 21.2727ZM22.4545 11.8182L11.8182 22.4545L13 23.6364L23.6364 13L22.4545 11.8182Z" fill="#EBEBEB" />
</svg>